Title                            : Män som hatar kvinnor
Also Known As                    : The Girl with the Dragon Tattoo
Year                             : 2009
Genre                            : Crime | Mystery | Thriller
iMDB URL                         : http://www.imdb.com/title/tt1132620/
Awards                           : 4 wins & 6 nominations

Complete name                    : The.Girl.with.the.Dragon.Tattoo.2009.BRRIP.720P.H264-ZEKTORM.mp4
Format                           : MPEG-4
Format profile                   : Base Media
Codec ID                         : isom
File size                        : 2.33 GiB
Duration                         : 2h 32mn
Overall bit rate                 : 2188 Kbps
Subtitles                        : English (Format: srt) / English (Selectable)

Video
ID                               : 1
Format                           : AVC
Format/Info                      : Advanced Video Codec
Format profile                   : High@L4.0
Format settings, CABAC           : Yes
Format settings, ReFrames        : 4 frames
Codec ID                         : avc1
Codec ID/Info                    : Advanced Video Coding
Duration                         : 2h 32mn
Bit rate mode                    : Variable
Bit rate                         : 1902 Kbps
Width                            : 1280 pixels
Height                           : 544 pixels
Display aspect ratio             : 2.35
Frame rate mode                  : Constant
Frame rate                       : 23.976 fps
Resolution                       : 24 bits
Colorimetry                      : 4:2:0
Scan type                        : Progressive
Bits/(Pixel*Frame)               : 0.114
Stream size                      : 2.02 GiB (86%)
Title                            : Video
Writing library                  : x264

Audio #1
ID                               : 2
Format                           : AAC
Format/Info                      : Advanced Audio Codec
Format version                   : Version 4
Format profile                   : LC
Format settings, SBR             : Yes
Format settings, PS              : No
Codec ID                         : 40
Duration                         : 2h 32mn
Bit rate mode                    : Variable
Bit rate                         : 211 Kbps
Maximum bit rate                 : 253 Kbps
Channel(s)                       : 6 channels
Channel positions                : Front: L C R, Rear: L R, LFE
Sampling rate                    : 48.0 KHz
Resolution                       : 16 bits
Stream size                      : 230 MiB (10%)
Title                            : Swedish / English
Language                         : Swedish / English

Audio #2
ID                               : 3
Format                           : AAC
Format/Info                      : Advanced Audio Codec
Format version                   : Version 4
Format profile                   : LC
Format settings, SBR             : Yes
Format settings, PS              : No
Codec ID                         : 40
Duration                         : 2h 32mn
Bit rate mode                    : Variable
Bit rate                         : 80.6 Kbps
Maximum bit rate                 : 122 Kbps
Channel(s)                       : 2 channels
Channel positions                : L R
Sampling rate                    : 48.0 KHz
Resolution                       : 16 bits
Stream size                      : 88.1 MiB (4%)
Language                         : Swedish / English

Text
ID                               : 4
Format                           : Timed text
Codec ID                         : tx3g
Duration                         : 2h 32mn
Bit rate mode                    : Variable
Bit rate                         : 38 bps
Stream size                      : 42.6 KiB (0%)
Language                         : English
